solid ascii
  facet normal 0.000000e+000 -1.000000e+001 0.000000e+000
    outer loop
      vertex   -2.858577e+002 3.202959e+002 1.350000e+001
      vertex   -2.858577e+002 3.202959e+002 5.000000e-001
      vertex   -2.298577e+002 3.202959e+002 1.350000e+001
    endloop
  endfacet
  facet normal 0.000000e+000 -9.740972e+000 0.000000e+000
    outer loop
      vertex   -2.298577e+002 3.202959e+002 1.350000e+001
      vertex   -2.858577e+002 3.202959e+002 5.000000e-001
      vertex   -2.298577e+002 3.202959e+002 5.000000e-001
    endloop
  endfacet
  facet normal 0.000000e+000 -1.000000e+001 0.000000e+000
    outer loop
      vertex   -2.298577e+002 3.202959e+002 1.350000e+001
      vertex   -2.298577e+002 3.202959e+002 5.000000e-001
      vertex   -1.738577e+002 3.202959e+002 1.350000e+001
    endloop
  endfacet
  facet normal 0.000000e+000 -9.740972e+000 0.000000e+000
    outer loop
      vertex   -1.738577e+002 3.202959e+002 1.350000e+001
      vertex   -2.298577e+002 3.202959e+002 5.000000e-001
      vertex   -1.738577e+002 3.202959e+002 5.000000e-001
    endloop
  endfacet
  facet normal 0.000000e+000 -1.000000e+001 0.000000e+000
    outer loop
      vertex   -1.738577e+002 3.202959e+002 1.350000e+001
      vertex   -1.738577e+002 3.202959e+002 5.000000e-001
      vertex   -1.178577e+002 3.202959e+002 1.350000e+001
    endloop
  endfacet
  facet normal 0.000000e+000 -9.740972e+000 0.000000e+000
    outer loop
      vertex   -1.178577e+002 3.202959e+002 1.350000e+001
      vertex   -1.738577e+002 3.202959e+002 5.000000e-001
      vertex   -1.178577e+002 3.202959e+002 5.000000e-001
    endloop
  endfacet
  facet normal 0.000000e+000 -1.000000e+001 0.000000e+000
    outer loop
      vertex   -1.178577e+002 3.202959e+002 1.350000e+001
      vertex   -1.178577e+002 3.202959e+002 5.000000e-001
      vertex   -6.185769e+001 3.202959e+002 1.350000e+001
    endloop
  endfacet
  facet normal 0.000000e+000 -9.740972e+000 0.000000e+000
    outer loop
      vertex   -6.185769e+001 3.202959e+002 1.350000e+001
      vertex   -1.178577e+002 3.202959e+002 5.000000e-001
      vertex   -6.185769e+001 3.202959e+002 5.000000e-001
    endloop
  endfacet
  facet normal 0.000000e+000 0.000000e+000 1.000000e+001
    outer loop
      vertex   -6.185769e+001 3.242959e+002 1.350000e+001
      vertex   -1.178577e+002 3.242959e+002 1.350000e+001
      vertex   -6.185769e+001 3.202959e+002 1.350000e+001
    endloop
  endfacet
  facet normal 0.000000e+000 0.000000e+000 7.124729e-001
    outer loop
      vertex   -6.185769e+001 3.202959e+002 1.350000e+001
      vertex   -1.178577e+002 3.242959e+002 1.350000e+001
      vertex   -1.178577e+002 3.202959e+002 1.350000e+001
    endloop
  endfacet
  facet normal 0.000000e+000 0.000000e+000 9.974586e+000
    outer loop
      vertex   -1.178577e+002 3.202959e+002 1.350000e+001
      vertex   -1.178577e+002 3.242959e+002 1.350000e+001
      vertex   -1.738577e+002 3.242959e+002 1.350000e+001
    endloop
  endfacet
  facet normal 0.000000e+000 0.000000e+000 7.124729e-001
    outer loop
      vertex   -1.178577e+002 3.202959e+002 1.350000e+001
      vertex   -1.738577e+002 3.242959e+002 1.350000e+001
      vertex   -1.738577e+002 3.202959e+002 1.350000e+001
    endloop
  endfacet
  facet normal 0.000000e+000 0.000000e+000 9.974586e+000
    outer loop
      vertex   -1.738577e+002 3.202959e+002 1.350000e+001
      vertex   -1.738577e+002 3.242959e+002 1.350000e+001
      vertex   -2.298577e+002 3.242959e+002 1.350000e+001
    endloop
  endfacet
  facet normal 0.000000e+000 0.000000e+000 7.124734e-001
    outer loop
      vertex   -1.738577e+002 3.202959e+002 1.350000e+001
      vertex   -2.298577e+002 3.242959e+002 1.350000e+001
      vertex   -2.298577e+002 3.202959e+002 1.350000e+001
    endloop
  endfacet
  facet normal 0.000000e+000 0.000000e+000 9.974586e+000
    outer loop
      vertex   -2.298577e+002 3.202959e+002 1.350000e+001
      vertex   -2.298577e+002 3.242959e+002 1.350000e+001
      vertex   -2.858577e+002 3.242959e+002 1.350000e+001
    endloop
  endfacet
  facet normal 0.000000e+000 0.000000e+000 7.124729e-001
    outer loop
      vertex   -2.298577e+002 3.202959e+002 1.350000e+001
      vertex   -2.858577e+002 3.242959e+002 1.350000e+001
      vertex   -2.858577e+002 3.202959e+002 1.350000e+001
    endloop
  endfacet
  facet normal 6.000022e+000 0.000000e+000 0.000000e+000
    outer loop
      vertex   -6.185769e+001 2.952959e+002 5.000000e-001
      vertex   -6.185769e+001 2.912959e+002 -2.500000e+000
      vertex   -6.185769e+001 3.202959e+002 5.000000e-001
    endloop
  endfacet
  facet normal 6.791331e+000 0.000000e+000 0.000000e+000
    outer loop
      vertex   -6.185769e+001 3.202959e+002 5.000000e-001
      vertex   -6.185769e+001 2.912959e+002 -2.500000e+000
      vertex   -6.185769e+001 3.242959e+002 -2.500000e+000
    endloop
  endfacet
  facet normal 9.410757e+000 0.000000e+000 0.000000e+000
    outer loop
      vertex   -6.185769e+001 3.202959e+002 5.000000e-001
      vertex   -6.185769e+001 3.242959e+002 -2.500000e+000
      vertex   -6.185769e+001 3.242959e+002 1.350000e+001
    endloop
  endfacet
  facet normal 1.000000e+001 0.000000e+000 0.000000e+000
    outer loop
      vertex   -6.185769e+001 2.952959e+002 1.350000e+001
      vertex   -6.185769e+001 2.912959e+002 1.350000e+001
      vertex   -6.185769e+001 2.952959e+002 5.000000e-001
    endloop
  endfacet
  facet normal 9.410732e+000 0.000000e+000 0.000000e+000
    outer loop
      vertex   -6.185769e+001 2.952959e+002 5.000000e-001
      vertex   -6.185769e+001 2.912959e+002 1.350000e+001
      vertex   -6.185769e+001 2.912959e+002 -2.500000e+000
    endloop
  endfacet
  facet normal 9.557787e+000 0.000000e+000 0.000000e+000
    outer loop
      vertex   -6.185769e+001 3.242959e+002 1.350000e+001
      vertex   -6.185769e+001 3.202959e+002 1.350000e+001
      vertex   -6.185769e+001 3.202959e+002 5.000000e-001
    endloop
  endfacet
  facet normal 0.000000e+000 1.000000e+001 0.000000e+000
    outer loop
      vertex   -6.185769e+001 2.952959e+002 1.350000e+001
      vertex   -6.185769e+001 2.952959e+002 5.000000e-001
      vertex   -1.178577e+002 2.952959e+002 1.350000e+001
    endloop
  endfacet
  facet normal 0.000000e+000 9.740972e+000 0.000000e+000
    outer loop
      vertex   -1.178577e+002 2.952959e+002 1.350000e+001
      vertex   -6.185769e+001 2.952959e+002 5.000000e-001
      vertex   -1.178577e+002 2.952959e+002 5.000000e-001
    endloop
  endfacet
  facet normal 0.000000e+000 1.000000e+001 0.000000e+000
    outer loop
      vertex   -1.178577e+002 2.952959e+002 1.350000e+001
      vertex   -1.178577e+002 2.952959e+002 5.000000e-001
      vertex   -1.738577e+002 2.952959e+002 1.350000e+001
    endloop
  endfacet
  facet normal 0.000000e+000 9.740972e+000 0.000000e+000
    outer loop
      vertex   -1.738577e+002 2.952959e+002 1.350000e+001
      vertex   -1.178577e+002 2.952959e+002 5.000000e-001
      vertex   -1.738577e+002 2.952959e+002 5.000000e-001
    endloop
  endfacet
  facet normal 0.000000e+000 1.000000e+001 0.000000e+000
    outer loop
      vertex   -1.738577e+002 2.952959e+002 1.350000e+001
      vertex   -1.738577e+002 2.952959e+002 5.000000e-001
      vertex   -2.298577e+002 2.952959e+002 1.350000e+001
    endloop
  endfacet
  facet normal 0.000000e+000 9.740972e+000 0.000000e+000
    outer loop
      vertex   -2.298577e+002 2.952959e+002 1.350000e+001
      vertex   -1.738577e+002 2.952959e+002 5.000000e-001
      vertex   -2.298577e+002 2.952959e+002 5.000000e-001
    endloop
  endfacet
  facet normal 0.000000e+000 1.000000e+001 0.000000e+000
    outer loop
      vertex   -2.298577e+002 2.952959e+002 1.350000e+001
      vertex   -2.298577e+002 2.952959e+002 5.000000e-001
      vertex   -2.858577e+002 2.952959e+002 1.350000e+001
    endloop
  endfacet
  facet normal 0.000000e+000 9.740972e+000 0.000000e+000
    outer loop
      vertex   -2.858577e+002 2.952959e+002 1.350000e+001
      vertex   -2.298577e+002 2.952959e+002 5.000000e-001
      vertex   -2.858577e+002 2.952959e+002 5.000000e-001
    endloop
  endfacet
  facet normal 0.000000e+000 0.000000e+000 1.000000e+001
    outer loop
      vertex   -6.185769e+001 2.952959e+002 1.350000e+001
      vertex   -1.178577e+002 2.952959e+002 1.350000e+001
      vertex   -6.185769e+001 2.912959e+002 1.350000e+001
    endloop
  endfacet
  facet normal 0.000000e+000 0.000000e+000 7.124662e-001
    outer loop
      vertex   -6.185769e+001 2.912959e+002 1.350000e+001
      vertex   -1.178577e+002 2.952959e+002 1.350000e+001
      vertex   -1.178577e+002 2.912959e+002 1.350000e+001
    endloop
  endfacet
  facet normal 0.000000e+000 0.000000e+000 9.974587e+000
    outer loop
      vertex   -1.178577e+002 2.912959e+002 1.350000e+001
      vertex   -1.178577e+002 2.952959e+002 1.350000e+001
      vertex   -1.738577e+002 2.952959e+002 1.350000e+001
    endloop
  endfacet
  facet normal 0.000000e+000 0.000000e+000 7.124662e-001
    outer loop
      vertex   -1.178577e+002 2.912959e+002 1.350000e+001
      vertex   -1.738577e+002 2.952959e+002 1.350000e+001
      vertex   -1.738577e+002 2.912959e+002 1.350000e+001
    endloop
  endfacet
  facet normal 0.000000e+000 0.000000e+000 9.974587e+000
    outer loop
      vertex   -1.738577e+002 2.912959e+002 1.350000e+001
      vertex   -1.738577e+002 2.952959e+002 1.350000e+001
      vertex   -2.298577e+002 2.952959e+002 1.350000e+001
    endloop
  endfacet
  facet normal 0.000000e+000 0.000000e+000 7.124666e-001
    outer loop
      vertex   -1.738577e+002 2.912959e+002 1.350000e+001
      vertex   -2.298577e+002 2.952959e+002 1.350000e+001
      vertex   -2.298577e+002 2.912959e+002 1.350000e+001
    endloop
  endfacet
  facet normal 0.000000e+000 0.000000e+000 9.974587e+000
    outer loop
      vertex   -2.298577e+002 2.912959e+002 1.350000e+001
      vertex   -2.298577e+002 2.952959e+002 1.350000e+001
      vertex   -2.858577e+002 2.952959e+002 1.350000e+001
    endloop
  endfacet
  facet normal 0.000000e+000 0.000000e+000 7.124662e-001
    outer loop
      vertex   -2.298577e+002 2.912959e+002 1.350000e+001
      vertex   -2.858577e+002 2.952959e+002 1.350000e+001
      vertex   -2.858577e+002 2.912959e+002 1.350000e+001
    endloop
  endfacet
  facet normal 0.000000e+000 0.000000e+000 1.017574e+000
    outer loop
      vertex   -1.178577e+002 3.202959e+002 5.000000e-001
      vertex   -8.291737e+001 3.167219e+002 5.000000e-001
      vertex   -6.185769e+001 3.202959e+002 5.000000e-001
    endloop
  endfacet
  facet normal 0.000000e+000 0.000000e+000 5.785255e+000
    outer loop
      vertex   -6.185769e+001 3.202959e+002 5.000000e-001
      vertex   -8.291737e+001 3.167219e+002 5.000000e-001
      vertex   -8.291737e+001 2.992519e+002 5.000000e-001
    endloop
  endfacet
  facet normal 0.000000e+000 0.000000e+000 7.073700e+000
    outer loop
      vertex   -6.185769e+001 3.202959e+002 5.000000e-001
      vertex   -8.291737e+001 2.992519e+002 5.000000e-001
      vertex   -6.185769e+001 2.952959e+002 5.000000e-001
    endloop
  endfacet
  facet normal 0.000000e+000 0.000000e+000 1.846178e+000
    outer loop
      vertex   -6.185769e+001 2.952959e+002 5.000000e-001
      vertex   -8.291737e+001 2.992519e+002 5.000000e-001
      vertex   -1.178577e+002 2.952959e+002 5.000000e-001
    endloop
  endfacet
  facet normal 0.000000e+000 0.000000e+000 5.332680e+000
    outer loop
      vertex   -1.178577e+002 2.952959e+002 5.000000e-001
      vertex   -8.291737e+001 2.992519e+002 5.000000e-001
      vertex   -1.129174e+002 2.992519e+002 5.000000e-001
    endloop
  endfacet
  facet normal 0.000000e+000 0.000000e+000 7.805818e+000
    outer loop
      vertex   -1.178577e+002 2.952959e+002 5.000000e-001
      vertex   -1.129174e+002 2.992519e+002 5.000000e-001
      vertex   -1.178577e+002 2.992519e+002 5.000000e-001
    endloop
  endfacet
  facet normal 0.000000e+000 0.000000e+000 9.622639e+000
    outer loop
      vertex   -1.178577e+002 2.992519e+002 5.000000e-001
      vertex   -1.129174e+002 2.992519e+002 5.000000e-001
      vertex   -1.129174e+002 3.167219e+002 5.000000e-001
    endloop
  endfacet
  facet normal 0.000000e+000 0.000000e+000 2.721181e+000
    outer loop
      vertex   -1.178577e+002 2.992519e+002 5.000000e-001
      vertex   -1.129174e+002 3.167219e+002 5.000000e-001
      vertex   -1.178577e+002 3.202959e+002 5.000000e-001
    endloop
  endfacet
  facet normal 0.000000e+000 0.000000e+000 5.006458e+000
    outer loop
      vertex   -1.178577e+002 3.202959e+002 5.000000e-001
      vertex   -1.129174e+002 3.167219e+002 5.000000e-001
      vertex   -8.291737e+001 3.167219e+002 5.000000e-001
    endloop
  endfacet
  facet normal 0.000000e+000 0.000000e+000 9.378030e+000
    outer loop
      vertex   -1.178577e+002 2.992519e+002 5.000000e-001
      vertex   -1.178577e+002 3.202959e+002 5.000000e-001
      vertex   -1.589174e+002 3.144519e+002 5.000000e-001
    endloop
  endfacet
  facet normal 0.000000e+000 0.000000e+000 4.918723e+000
    outer loop
      vertex   -1.589174e+002 3.144519e+002 5.000000e-001
      vertex   -1.178577e+002 3.202959e+002 5.000000e-001
      vertex   -1.738577e+002 3.202959e+002 5.000000e-001
    endloop
  endfacet
  facet normal 0.000000e+000 0.000000e+000 3.642795e+000
    outer loop
      vertex   -1.589174e+002 3.144519e+002 5.000000e-001
      vertex   -1.738577e+002 3.202959e+002 5.000000e-001
      vertex   -1.869174e+002 3.144519e+002 5.000000e-001
    endloop
  endfacet
  facet normal 0.000000e+000 0.000000e+000 5.278137e+000
    outer loop
      vertex   -1.869174e+002 3.144519e+002 5.000000e-001
      vertex   -1.738577e+002 3.202959e+002 5.000000e-001
      vertex   -2.298577e+002 3.202959e+002 5.000000e-001
    endloop
  endfacet
  facet normal 0.000000e+000 0.000000e+000 4.577662e+000
    outer loop
      vertex   -1.869174e+002 3.144519e+002 5.000000e-001
      vertex   -2.298577e+002 3.202959e+002 5.000000e-001
      vertex   -2.298577e+002 2.992519e+002 5.000000e-001
    endloop
  endfacet
  facet normal 0.000000e+000 0.000000e+000 2.785062e+000
    outer loop
      vertex   -2.298577e+002 2.992519e+002 5.000000e-001
      vertex   -2.298577e+002 3.202959e+002 5.000000e-001
      vertex   -2.339174e+002 3.132519e+002 5.000000e-001
    endloop
  endfacet
  facet normal 0.000000e+000 0.000000e+000 9.604344e+000
    outer loop
      vertex   -2.298577e+002 2.992519e+002 5.000000e-001
      vertex   -2.339174e+002 3.132519e+002 5.000000e-001
      vertex   -2.339174e+002 2.992519e+002 5.000000e-001
    endloop
  endfacet
  facet normal 0.000000e+000 0.000000e+000 8.664051e+000
    outer loop
      vertex   -2.339174e+002 3.132519e+002 5.000000e-001
      vertex   -2.298577e+002 3.202959e+002 5.000000e-001
      vertex   -2.599174e+002 3.132519e+002 5.000000e-001
    endloop
  endfacet
  facet normal 0.000000e+000 0.000000e+000 4.753241e+000
    outer loop
      vertex   -2.599174e+002 3.132519e+002 5.000000e-001
      vertex   -2.298577e+002 3.202959e+002 5.000000e-001
      vertex   -2.858577e+002 3.202959e+002 5.000000e-001
    endloop
  endfacet
  facet normal 0.000000e+000 0.000000e+000 7.647332e+000
    outer loop
      vertex   -2.599174e+002 3.132519e+002 5.000000e-001
      vertex   -2.858577e+002 3.202959e+002 5.000000e-001
      vertex   -2.858577e+002 2.952959e+002 5.000000e-001
    endloop
  endfacet
  facet normal 0.000000e+000 0.000000e+000 8.222319e+000
    outer loop
      vertex   -2.599174e+002 3.132519e+002 5.000000e-001
      vertex   -2.858577e+002 2.952959e+002 5.000000e-001
      vertex   -2.599174e+002 2.992519e+002 5.000000e-001
    endloop
  endfacet
  facet normal 0.000000e+000 0.000000e+000 2.784598e+000
    outer loop
      vertex   -2.599174e+002 2.992519e+002 5.000000e-001
      vertex   -2.858577e+002 2.952959e+002 5.000000e-001
      vertex   -2.298577e+002 2.952959e+002 5.000000e-001
    endloop
  endfacet
  facet normal 0.000000e+000 0.000000e+000 1.304795e+000
    outer loop
      vertex   -2.599174e+002 2.992519e+002 5.000000e-001
      vertex   -2.298577e+002 2.952959e+002 5.000000e-001
      vertex   -2.339174e+002 2.992519e+002 5.000000e-001
    endloop
  endfacet
  facet normal 0.000000e+000 0.000000e+000 6.978986e+000
    outer loop
      vertex   -2.339174e+002 2.992519e+002 5.000000e-001
      vertex   -2.298577e+002 2.952959e+002 5.000000e-001
      vertex   -2.298577e+002 2.992519e+002 5.000000e-001
    endloop
  endfacet
  facet normal 0.000000e+000 0.000000e+000 1.000000e+001
    outer loop
      vertex   -2.298577e+002 2.992519e+002 5.000000e-001
      vertex   -2.298577e+002 2.952959e+002 5.000000e-001
      vertex   -1.869174e+002 2.992519e+002 5.000000e-001
    endloop
  endfacet
  facet normal 0.000000e+000 0.000000e+000 3.764844e+000
    outer loop
      vertex   -1.869174e+002 2.992519e+002 5.000000e-001
      vertex   -2.298577e+002 2.952959e+002 5.000000e-001
      vertex   -1.738577e+002 2.952959e+002 5.000000e-001
    endloop
  endfacet
  facet normal 0.000000e+000 0.000000e+000 2.899075e+000
    outer loop
      vertex   -1.869174e+002 2.992519e+002 5.000000e-001
      vertex   -1.738577e+002 2.952959e+002 5.000000e-001
      vertex   -1.589174e+002 2.992519e+002 5.000000e-001
    endloop
  endfacet
  facet normal 0.000000e+000 0.000000e+000 3.474936e+000
    outer loop
      vertex   -1.589174e+002 2.992519e+002 5.000000e-001
      vertex   -1.738577e+002 2.952959e+002 5.000000e-001
      vertex   -1.178577e+002 2.952959e+002 5.000000e-001
    endloop
  endfacet
  facet normal 0.000000e+000 0.000000e+000 9.590330e-001
    outer loop
      vertex   -1.589174e+002 2.992519e+002 5.000000e-001
      vertex   -1.178577e+002 2.952959e+002 5.000000e-001
      vertex   -1.178577e+002 2.992519e+002 5.000000e-001
    endloop
  endfacet
  facet normal 0.000000e+000 0.000000e+000 1.000000e+001
    outer loop
      vertex   -1.869174e+002 2.992519e+002 5.000000e-001
      vertex   -1.869174e+002 3.144519e+002 5.000000e-001
      vertex   -2.298577e+002 2.992519e+002 5.000000e-001
    endloop
  endfacet
  facet normal 0.000000e+000 0.000000e+000 9.378030e+000
    outer loop
      vertex   -1.589174e+002 3.144519e+002 5.000000e-001
      vertex   -1.589174e+002 2.992519e+002 5.000000e-001
      vertex   -1.178577e+002 2.992519e+002 5.000000e-001
    endloop
  endfacet
  facet normal 0.000000e+000 -1.000000e+001 0.000000e+000
    outer loop
      vertex   -1.129174e+002 3.167219e+002 5.000000e-001
      vertex   -1.129174e+002 3.167219e+002 -2.500000e+000
      vertex   -8.291737e+001 3.167219e+002 5.000000e-001
    endloop
  endfacet
  facet normal 0.000000e+000 -9.950372e+000 0.000000e+000
    outer loop
      vertex   -8.291737e+001 3.167219e+002 5.000000e-001
      vertex   -1.129174e+002 3.167219e+002 -2.500000e+000
      vertex   -8.291737e+001 3.167219e+002 -2.500000e+000
    endloop
  endfacet
  facet normal -1.000000e+001 -0.000000e+000 -0.000000e+000
    outer loop
      vertex   -8.291737e+001 3.167219e+002 5.000000e-001
      vertex   -8.291737e+001 3.167219e+002 -2.500000e+000
      vertex   -8.291737e+001 2.992519e+002 5.000000e-001
    endloop
  endfacet
  facet normal -9.855740e+000 0.000000e+000 0.000000e+000
    outer loop
      vertex   -8.291737e+001 2.992519e+002 5.000000e-001
      vertex   -8.291737e+001 3.167219e+002 -2.500000e+000
      vertex   -8.291737e+001 2.992519e+002 -2.500000e+000
    endloop
  endfacet
  facet normal 0.000000e+000 1.000000e+001 0.000000e+000
    outer loop
      vertex   -8.291737e+001 2.992519e+002 5.000000e-001
      vertex   -8.291737e+001 2.992519e+002 -2.500000e+000
      vertex   -1.129174e+002 2.992519e+002 5.000000e-001
    endloop
  endfacet
  facet normal 0.000000e+000 9.950372e+000 0.000000e+000
    outer loop
      vertex   -1.129174e+002 2.992519e+002 5.000000e-001
      vertex   -8.291737e+001 2.992519e+002 -2.500000e+000
      vertex   -1.129174e+002 2.992519e+002 -2.500000e+000
    endloop
  endfacet
  facet normal 1.000000e+001 0.000000e+000 0.000000e+000
    outer loop
      vertex   -1.129174e+002 2.992519e+002 5.000000e-001
      vertex   -1.129174e+002 2.992519e+002 -2.500000e+000
      vertex   -1.129174e+002 3.167219e+002 5.000000e-001
    endloop
  endfacet
  facet normal 9.855740e+000 0.000000e+000 0.000000e+000
    outer loop
      vertex   -1.129174e+002 3.167219e+002 5.000000e-001
      vertex   -1.129174e+002 2.992519e+002 -2.500000e+000
      vertex   -1.129174e+002 3.167219e+002 -2.500000e+000
    endloop
  endfacet
  facet normal 0.000000e+000 -1.000000e+001 0.000000e+000
    outer loop
      vertex   -1.869174e+002 3.144519e+002 5.000000e-001
      vertex   -1.869174e+002 3.144519e+002 -2.500000e+000
      vertex   -1.589174e+002 3.144519e+002 5.000000e-001
    endloop
  endfacet
  facet normal 0.000000e+000 -9.943092e+000 0.000000e+000
    outer loop
      vertex   -1.589174e+002 3.144519e+002 5.000000e-001
      vertex   -1.869174e+002 3.144519e+002 -2.500000e+000
      vertex   -1.589174e+002 3.144519e+002 -2.500000e+000
    endloop
  endfacet
  facet normal -1.000000e+001 -0.000000e+000 -0.000000e+000
    outer loop
      vertex   -1.589174e+002 3.144519e+002 5.000000e-001
      vertex   -1.589174e+002 3.144519e+002 -2.500000e+000
      vertex   -1.589174e+002 2.992519e+002 5.000000e-001
    endloop
  endfacet
  facet normal -9.810740e+000 0.000000e+000 0.000000e+000
    outer loop
      vertex   -1.589174e+002 2.992519e+002 5.000000e-001
      vertex   -1.589174e+002 3.144519e+002 -2.500000e+000
      vertex   -1.589174e+002 2.992519e+002 -2.500000e+000
    endloop
  endfacet
  facet normal 0.000000e+000 1.000000e+001 0.000000e+000
    outer loop
      vertex   -1.589174e+002 2.992519e+002 5.000000e-001
      vertex   -1.589174e+002 2.992519e+002 -2.500000e+000
      vertex   -1.869174e+002 2.992519e+002 5.000000e-001
    endloop
  endfacet
  facet normal 0.000000e+000 9.943092e+000 0.000000e+000
    outer loop
      vertex   -1.869174e+002 2.992519e+002 5.000000e-001
      vertex   -1.589174e+002 2.992519e+002 -2.500000e+000
      vertex   -1.869174e+002 2.992519e+002 -2.500000e+000
    endloop
  endfacet
  facet normal 1.000000e+001 0.000000e+000 0.000000e+000
    outer loop
      vertex   -1.869174e+002 2.992519e+002 5.000000e-001
      vertex   -1.869174e+002 2.992519e+002 -2.500000e+000
      vertex   -1.869174e+002 3.144519e+002 5.000000e-001
    endloop
  endfacet
  facet normal 9.810740e+000 0.000000e+000 0.000000e+000
    outer loop
      vertex   -1.869174e+002 3.144519e+002 5.000000e-001
      vertex   -1.869174e+002 2.992519e+002 -2.500000e+000
      vertex   -1.869174e+002 3.144519e+002 -2.500000e+000
    endloop
  endfacet
  facet normal 0.000000e+000 -1.000000e+001 0.000000e+000
    outer loop
      vertex   -2.599174e+002 3.132519e+002 5.000000e-001
      vertex   -2.599174e+002 3.132519e+002 -2.500000e+000
      vertex   -2.339174e+002 3.132519e+002 5.000000e-001
    endloop
  endfacet
  facet normal 0.000000e+000 -9.934090e+000 0.000000e+000
    outer loop
      vertex   -2.339174e+002 3.132519e+002 5.000000e-001
      vertex   -2.599174e+002 3.132519e+002 -2.500000e+000
      vertex   -2.339174e+002 3.132519e+002 -2.500000e+000
    endloop
  endfacet
  facet normal -1.000000e+001 -0.000000e+000 -0.000000e+000
    outer loop
      vertex   -2.339174e+002 3.132519e+002 5.000000e-001
      vertex   -2.339174e+002 3.132519e+002 -2.500000e+000
      vertex   -2.339174e+002 2.992519e+002 5.000000e-001
    endloop
  endfacet
  facet normal -9.778025e+000 0.000000e+000 0.000000e+000
    outer loop
      vertex   -2.339174e+002 2.992519e+002 5.000000e-001
      vertex   -2.339174e+002 3.132519e+002 -2.500000e+000
      vertex   -2.339174e+002 2.992519e+002 -2.500000e+000
    endloop
  endfacet
  facet normal 0.000000e+000 1.000000e+001 0.000000e+000
    outer loop
      vertex   -2.339174e+002 2.992519e+002 5.000000e-001
      vertex   -2.339174e+002 2.992519e+002 -2.500000e+000
      vertex   -2.599174e+002 2.992519e+002 5.000000e-001
    endloop
  endfacet
  facet normal 0.000000e+000 9.934090e+000 0.000000e+000
    outer loop
      vertex   -2.599174e+002 2.992519e+002 5.000000e-001
      vertex   -2.339174e+002 2.992519e+002 -2.500000e+000
      vertex   -2.599174e+002 2.992519e+002 -2.500000e+000
    endloop
  endfacet
  facet normal 1.000000e+001 0.000000e+000 0.000000e+000
    outer loop
      vertex   -2.599174e+002 2.992519e+002 5.000000e-001
      vertex   -2.599174e+002 2.992519e+002 -2.500000e+000
      vertex   -2.599174e+002 3.132519e+002 5.000000e-001
    endloop
  endfacet
  facet normal 9.778025e+000 0.000000e+000 0.000000e+000
    outer loop
      vertex   -2.599174e+002 3.132519e+002 5.000000e-001
      vertex   -2.599174e+002 2.992519e+002 -2.500000e+000
      vertex   -2.599174e+002 3.132519e+002 -2.500000e+000
    endloop
  endfacet
  facet normal 0.000000e+000 0.000000e+000 -9.354708e+000
    outer loop
      vertex   -6.185769e+001 2.912959e+002 -2.500000e+000
      vertex   -8.291737e+001 2.992519e+002 -2.500000e+000
      vertex   -6.185769e+001 3.242959e+002 -2.500000e+000
    endloop
  endfacet
  facet normal 0.000000e+000 0.000000e+000 -5.023930e+000
    outer loop
      vertex   -6.185769e+001 3.242959e+002 -2.500000e+000
      vertex   -8.291737e+001 2.992519e+002 -2.500000e+000
      vertex   -8.291737e+001 3.167219e+002 -2.500000e+000
    endloop
  endfacet
  facet normal 0.000000e+000 0.000000e+000 -3.384235e+000
    outer loop
      vertex   -6.185769e+001 3.242959e+002 -2.500000e+000
      vertex   -8.291737e+001 3.167219e+002 -2.500000e+000
      vertex   -1.178577e+002 3.242959e+002 -2.500000e+000
    endloop
  endfacet
  facet normal 0.000000e+000 0.000000e+000 -7.028215e+000
    outer loop
      vertex   -1.178577e+002 3.242959e+002 -2.500000e+000
      vertex   -8.291737e+001 3.167219e+002 -2.500000e+000
      vertex   -1.129174e+002 3.167219e+002 -2.500000e+000
    endloop
  endfacet
  facet normal 0.000000e+000 0.000000e+000 -5.463275e+000
    outer loop
      vertex   -1.178577e+002 3.242959e+002 -2.500000e+000
      vertex   -1.129174e+002 3.167219e+002 -2.500000e+000
      vertex   -1.178577e+002 2.992519e+002 -2.500000e+000
    endloop
  endfacet
  facet normal 0.000000e+000 0.000000e+000 -9.622639e+000
    outer loop
      vertex   -1.178577e+002 2.992519e+002 -2.500000e+000
      vertex   -1.129174e+002 3.167219e+002 -2.500000e+000
      vertex   -1.129174e+002 2.992519e+002 -2.500000e+000
    endloop
  endfacet
  facet normal 0.000000e+000 0.000000e+000 -1.000000e+001
    outer loop
      vertex   -1.178577e+002 2.992519e+002 -2.500000e+000
      vertex   -1.129174e+002 2.992519e+002 -2.500000e+000
      vertex   -1.178577e+002 2.912959e+002 -2.500000e+000
    endloop
  endfacet
  facet normal 0.000000e+000 0.000000e+000 -7.112137e+000
    outer loop
      vertex   -1.178577e+002 2.912959e+002 -2.500000e+000
      vertex   -1.129174e+002 2.992519e+002 -2.500000e+000
      vertex   -8.291737e+001 2.992519e+002 -2.500000e+000
    endloop
  endfacet
  facet normal 0.000000e+000 0.000000e+000 -2.220187e+000
    outer loop
      vertex   -1.178577e+002 2.912959e+002 -2.500000e+000
      vertex   -8.291737e+001 2.992519e+002 -2.500000e+000
      vertex   -6.185769e+001 2.912959e+002 -2.500000e+000
    endloop
  endfacet
  facet normal -0.000000e+000 -0.000000e+000 -1.000000e+001
    outer loop
      vertex   -1.178577e+002 2.992519e+002 -2.500000e+000
      vertex   -1.178577e+002 2.912959e+002 -2.500000e+000
      vertex   -1.589174e+002 2.992519e+002 -2.500000e+000
    endloop
  endfacet
  facet normal 0.000000e+000 0.000000e+000 -6.293489e+000
    outer loop
      vertex   -1.589174e+002 2.992519e+002 -2.500000e+000
      vertex   -1.178577e+002 2.912959e+002 -2.500000e+000
      vertex   -1.738577e+002 2.912959e+002 -2.500000e+000
    endloop
  endfacet
  facet normal 0.000000e+000 0.000000e+000 -4.700265e+000
    outer loop
      vertex   -1.589174e+002 2.992519e+002 -2.500000e+000
      vertex   -1.738577e+002 2.912959e+002 -2.500000e+000
      vertex   -1.869174e+002 2.992519e+002 -2.500000e+000
    endloop
  endfacet
  facet normal 0.000000e+000 0.000000e+000 -6.671374e+000
    outer loop
      vertex   -1.869174e+002 2.992519e+002 -2.500000e+000
      vertex   -1.738577e+002 2.912959e+002 -2.500000e+000
      vertex   -2.298577e+002 2.912959e+002 -2.500000e+000
    endloop
  endfacet
  facet normal 0.000000e+000 0.000000e+000 -1.821793e+000
    outer loop
      vertex   -1.869174e+002 2.992519e+002 -2.500000e+000
      vertex   -2.298577e+002 2.912959e+002 -2.500000e+000
      vertex   -2.298577e+002 2.992519e+002 -2.500000e+000
    endloop
  endfacet
  facet normal -0.000000e+000 -0.000000e+000 -1.000000e+001
    outer loop
      vertex   -2.298577e+002 2.992519e+002 -2.500000e+000
      vertex   -2.298577e+002 2.912959e+002 -2.500000e+000
      vertex   -2.339174e+002 2.992519e+002 -2.500000e+000
    endloop
  endfacet
  facet normal 0.000000e+000 0.000000e+000 -9.604344e+000
    outer loop
      vertex   -2.298577e+002 2.992519e+002 -2.500000e+000
      vertex   -2.339174e+002 2.992519e+002 -2.500000e+000
      vertex   -2.339174e+002 3.132519e+002 -2.500000e+000
    endloop
  endfacet
  facet normal -0.000000e+000 -0.000000e+000 -8.907372e+000
    outer loop
      vertex   -2.339174e+002 2.992519e+002 -2.500000e+000
      vertex   -2.298577e+002 2.912959e+002 -2.500000e+000
      vertex   -2.599174e+002 2.992519e+002 -2.500000e+000
    endloop
  endfacet
  facet normal 0.000000e+000 0.000000e+000 -5.280769e+000
    outer loop
      vertex   -2.599174e+002 2.992519e+002 -2.500000e+000
      vertex   -2.298577e+002 2.912959e+002 -2.500000e+000
      vertex   -2.858577e+002 2.912959e+002 -2.500000e+000
    endloop
  endfacet
  facet normal 0.000000e+000 0.000000e+000 -9.560445e+000
    outer loop
      vertex   -2.599174e+002 2.992519e+002 -2.500000e+000
      vertex   -2.858577e+002 2.912959e+002 -2.500000e+000
      vertex   -2.599174e+002 3.132519e+002 -2.500000e+000
    endloop
  endfacet
  facet normal 0.000000e+000 0.000000e+000 -8.934217e+000
    outer loop
      vertex   -2.599174e+002 3.132519e+002 -2.500000e+000
      vertex   -2.858577e+002 2.912959e+002 -2.500000e+000
      vertex   -2.858577e+002 3.242959e+002 -2.500000e+000
    endloop
  endfacet
  facet normal 0.000000e+000 0.000000e+000 -6.849945e+000
    outer loop
      vertex   -2.599174e+002 3.132519e+002 -2.500000e+000
      vertex   -2.858577e+002 3.242959e+002 -2.500000e+000
      vertex   -2.298577e+002 3.242959e+002 -2.500000e+000
    endloop
  endfacet
  facet normal 0.000000e+000 0.000000e+000 -6.019255e+000
    outer loop
      vertex   -1.738577e+002 3.242959e+002 -2.500000e+000
      vertex   -1.869174e+002 3.144519e+002 -2.500000e+000
      vertex   -2.298577e+002 3.242959e+002 -2.500000e+000
    endloop
  endfacet
  facet normal 0.000000e+000 0.000000e+000 -9.747149e+000
    outer loop
      vertex   -2.298577e+002 3.242959e+002 -2.500000e+000
      vertex   -1.869174e+002 3.144519e+002 -2.500000e+000
      vertex   -2.298577e+002 2.992519e+002 -2.500000e+000
    endloop
  endfacet
  facet normal 0.000000e+000 0.000000e+000 -3.450222e+000
    outer loop
      vertex   -2.298577e+002 3.242959e+002 -2.500000e+000
      vertex   -2.298577e+002 2.992519e+002 -2.500000e+000
      vertex   -2.339174e+002 3.132519e+002 -2.500000e+000
    endloop
  endfacet
  facet normal 0.000000e+000 0.000000e+000 -6.019255e+000
    outer loop
      vertex   -1.869174e+002 3.144519e+002 -2.500000e+000
      vertex   -1.738577e+002 3.242959e+002 -2.500000e+000
      vertex   -1.589174e+002 3.144519e+002 -2.500000e+000
    endloop
  endfacet
  facet normal 0.000000e+000 0.000000e+000 -7.297156e+000
    outer loop
      vertex   -1.589174e+002 3.144519e+002 -2.500000e+000
      vertex   -1.738577e+002 3.242959e+002 -2.500000e+000
      vertex   -1.178577e+002 3.242959e+002 -2.500000e+000
    endloop
  endfacet
  facet normal 0.000000e+000 0.000000e+000 -5.562424e+000
    outer loop
      vertex   -1.589174e+002 3.144519e+002 -2.500000e+000
      vertex   -1.178577e+002 3.242959e+002 -2.500000e+000
      vertex   -1.178577e+002 2.992519e+002 -2.500000e+000
    endloop
  endfacet
  facet normal 0.000000e+000 0.000000e+000 -1.000000e+001
    outer loop
      vertex   -1.589174e+002 2.992519e+002 -2.500000e+000
      vertex   -1.589174e+002 3.144519e+002 -2.500000e+000
      vertex   -1.178577e+002 2.992519e+002 -2.500000e+000
    endloop
  endfacet
  facet normal 0.000000e+000 0.000000e+000 -9.426826e+000
    outer loop
      vertex   -1.869174e+002 3.144519e+002 -2.500000e+000
      vertex   -1.869174e+002 2.992519e+002 -2.500000e+000
      vertex   -2.298577e+002 2.992519e+002 -2.500000e+000
    endloop
  endfacet
  facet normal 0.000000e+000 0.000000e+000 -9.385945e+000
    outer loop
      vertex   -2.339174e+002 3.132519e+002 -2.500000e+000
      vertex   -2.599174e+002 3.132519e+002 -2.500000e+000
      vertex   -2.298577e+002 3.242959e+002 -2.500000e+000
    endloop
  endfacet
  facet normal 0.000000e+000 -1.000000e+001 0.000000e+000
    outer loop
      vertex   -2.858577e+002 2.912959e+002 1.350000e+001
      vertex   -2.858577e+002 2.912959e+002 -2.500000e+000
      vertex   -2.298577e+002 2.912959e+002 1.350000e+001
    endloop
  endfacet
  facet normal 0.000000e+000 -9.615239e+000 0.000000e+000
    outer loop
      vertex   -2.298577e+002 2.912959e+002 1.350000e+001
      vertex   -2.858577e+002 2.912959e+002 -2.500000e+000
      vertex   -2.298577e+002 2.912959e+002 -2.500000e+000
    endloop
  endfacet
  facet normal 0.000000e+000 -1.000000e+001 0.000000e+000
    outer loop
      vertex   -2.298577e+002 2.912959e+002 1.350000e+001
      vertex   -2.298577e+002 2.912959e+002 -2.500000e+000
      vertex   -1.738577e+002 2.912959e+002 1.350000e+001
    endloop
  endfacet
  facet normal 0.000000e+000 -9.615239e+000 0.000000e+000
    outer loop
      vertex   -1.738577e+002 2.912959e+002 1.350000e+001
      vertex   -2.298577e+002 2.912959e+002 -2.500000e+000
      vertex   -1.738577e+002 2.912959e+002 -2.500000e+000
    endloop
  endfacet
  facet normal 0.000000e+000 -1.000000e+001 0.000000e+000
    outer loop
      vertex   -1.738577e+002 2.912959e+002 1.350000e+001
      vertex   -1.738577e+002 2.912959e+002 -2.500000e+000
      vertex   -1.178577e+002 2.912959e+002 1.350000e+001
    endloop
  endfacet
  facet normal 0.000000e+000 -9.615239e+000 0.000000e+000
    outer loop
      vertex   -1.178577e+002 2.912959e+002 1.350000e+001
      vertex   -1.738577e+002 2.912959e+002 -2.500000e+000
      vertex   -1.178577e+002 2.912959e+002 -2.500000e+000
    endloop
  endfacet
  facet normal 0.000000e+000 -1.000000e+001 0.000000e+000
    outer loop
      vertex   -1.178577e+002 2.912959e+002 1.350000e+001
      vertex   -1.178577e+002 2.912959e+002 -2.500000e+000
      vertex   -6.185769e+001 2.912959e+002 1.350000e+001
    endloop
  endfacet
  facet normal 0.000000e+000 -9.615239e+000 0.000000e+000
    outer loop
      vertex   -6.185769e+001 2.912959e+002 1.350000e+001
      vertex   -1.178577e+002 2.912959e+002 -2.500000e+000
      vertex   -6.185769e+001 2.912959e+002 -2.500000e+000
    endloop
  endfacet
  facet normal -2.940869e+000 0.000000e+000 0.000000e+000
    outer loop
      vertex   -2.858577e+002 3.242959e+002 1.350000e+001
      vertex   -2.858577e+002 3.242959e+002 -2.500000e+000
      vertex   -2.858577e+002 3.202959e+002 5.000000e-001
    endloop
  endfacet
  facet normal -6.791331e+000 0.000000e+000 0.000000e+000
    outer loop
      vertex   -2.858577e+002 3.202959e+002 5.000000e-001
      vertex   -2.858577e+002 3.242959e+002 -2.500000e+000
      vertex   -2.858577e+002 2.912959e+002 -2.500000e+000
    endloop
  endfacet
  facet normal -1.028992e+000 0.000000e+000 0.000000e+000
    outer loop
      vertex   -2.858577e+002 3.202959e+002 5.000000e-001
      vertex   -2.858577e+002 2.912959e+002 -2.500000e+000
      vertex   -2.858577e+002 2.952959e+002 5.000000e-001
    endloop
  endfacet
  facet normal -9.410732e+000 0.000000e+000 0.000000e+000
    outer loop
      vertex   -2.858577e+002 2.952959e+002 5.000000e-001
      vertex   -2.858577e+002 2.912959e+002 -2.500000e+000
      vertex   -2.858577e+002 2.912959e+002 1.350000e+001
    endloop
  endfacet
  facet normal -2.940843e+000 0.000000e+000 0.000000e+000
    outer loop
      vertex   -2.858577e+002 2.952959e+002 5.000000e-001
      vertex   -2.858577e+002 2.912959e+002 1.350000e+001
      vertex   -2.858577e+002 2.952959e+002 1.350000e+001
    endloop
  endfacet
  facet normal -2.940869e+000 0.000000e+000 0.000000e+000
    outer loop
      vertex   -2.858577e+002 3.202959e+002 5.000000e-001
      vertex   -2.858577e+002 3.202959e+002 1.350000e+001
      vertex   -2.858577e+002 3.242959e+002 1.350000e+001
    endloop
  endfacet
  facet normal 0.000000e+000 1.000000e+001 0.000000e+000
    outer loop
      vertex   -6.185769e+001 3.242959e+002 1.350000e+001
      vertex   -6.185769e+001 3.242959e+002 -2.500000e+000
      vertex   -1.178577e+002 3.242959e+002 1.350000e+001
    endloop
  endfacet
  facet normal 0.000000e+000 9.615239e+000 0.000000e+000
    outer loop
      vertex   -1.178577e+002 3.242959e+002 1.350000e+001
      vertex   -6.185769e+001 3.242959e+002 -2.500000e+000
      vertex   -1.178577e+002 3.242959e+002 -2.500000e+000
    endloop
  endfacet
  facet normal 0.000000e+000 1.000000e+001 0.000000e+000
    outer loop
      vertex   -1.178577e+002 3.242959e+002 1.350000e+001
      vertex   -1.178577e+002 3.242959e+002 -2.500000e+000
      vertex   -1.738577e+002 3.242959e+002 1.350000e+001
    endloop
  endfacet
  facet normal 0.000000e+000 9.615239e+000 0.000000e+000
    outer loop
      vertex   -1.738577e+002 3.242959e+002 1.350000e+001
      vertex   -1.178577e+002 3.242959e+002 -2.500000e+000
      vertex   -1.738577e+002 3.242959e+002 -2.500000e+000
    endloop
  endfacet
  facet normal 0.000000e+000 1.000000e+001 0.000000e+000
    outer loop
      vertex   -1.738577e+002 3.242959e+002 1.350000e+001
      vertex   -1.738577e+002 3.242959e+002 -2.500000e+000
      vertex   -2.298577e+002 3.242959e+002 1.350000e+001
    endloop
  endfacet
  facet normal 0.000000e+000 9.615239e+000 0.000000e+000
    outer loop
      vertex   -2.298577e+002 3.242959e+002 1.350000e+001
      vertex   -1.738577e+002 3.242959e+002 -2.500000e+000
      vertex   -2.298577e+002 3.242959e+002 -2.500000e+000
    endloop
  endfacet
  facet normal 0.000000e+000 1.000000e+001 0.000000e+000
    outer loop
      vertex   -2.298577e+002 3.242959e+002 1.350000e+001
      vertex   -2.298577e+002 3.242959e+002 -2.500000e+000
      vertex   -2.858577e+002 3.242959e+002 1.350000e+001
    endloop
  endfacet
  facet normal 0.000000e+000 9.615239e+000 0.000000e+000
    outer loop
      vertex   -2.858577e+002 3.242959e+002 1.350000e+001
      vertex   -2.298577e+002 3.242959e+002 -2.500000e+000
      vertex   -2.858577e+002 3.242959e+002 -2.500000e+000
    endloop
  endfacet
endsolid
